<svg width="12" height="12" viewBox="0 0 12 12" fill="none" xmlns="http://www.w3.org/2000/svg">
<path d="M6 0C9.3138 0 12 2.6868 12 6C12 9.3132 9.3138 12 6 12C2.6862 12 0 9.3132 0 6C0 2.6868 2.6862 0 6 0ZM6 1.0002C3.243 1.0002 1.0002 3.243 1.0002 6C1.0002 8.757 3.243 10.9998 6 10.9998C8.757 10.9998 10.9998 8.757 10.9998 6C10.9998 3.243 8.757 1.0002 6 1.0002ZM5.55 2.4C5.65874 2.4 5.76381 2.43939 5.84576 2.51086C5.92771 2.58233 5.98101 2.68107 5.9958 2.7888L6 2.85V6H7.95C8.06401 6.00003 8.17377 6.04335 8.25708 6.12118C8.34039 6.19902 8.39104 6.30558 8.39882 6.41933C8.40659 6.53308 8.37089 6.64554 8.29894 6.73398C8.22699 6.82242 8.12415 6.88026 8.0112 6.8958L7.95 6.9H5.55C5.44126 6.9 5.33619 6.86061 5.25424 6.78914C5.17229 6.71767 5.11899 6.61893 5.1042 6.5112L5.1 6.45V2.85C5.1 2.73065 5.14741 2.61619 5.2318 2.5318C5.31619 2.44741 5.43065 2.4 5.55 2.4Z" fill="#E3AB38"/>
</svg>
