<svg width="12" height="14" viewBox="0 0 12 14" fill="none" xmlns="http://www.w3.org/2000/svg">
<path d="M6.54545 0V3.5C6.54545 3.89782 6.71786 4.27936 7.02473 4.56066C7.33161 4.84196 7.74783 5 8.18182 5H12V12.5C12 12.8978 11.8276 13.2794 11.5207 13.5607C11.2138 13.842 10.7976 14 10.3636 14H1.63636C1.20237 14 0.786158 13.842 0.47928 13.5607C0.172402 13.2794 0 12.8978 0 12.5V1.5C0 1.10218 0.172402 0.720644 0.47928 0.43934C0.786158 0.158035 1.20237 0 1.63636 0H6.54545ZM7.63636 0.0585001V3.5C7.63636 3.63261 7.69383 3.75979 7.79612 3.85355C7.89842 3.94732 8.03715 4 8.18182 4H11.9362C11.8596 3.7557 11.7166 3.53324 11.5205 3.3535L8.34164 0.44C8.14562 0.260094 7.90293 0.128817 7.63636 0.0585001Z" fill="#E3AB38"/>
</svg>
