<svg width="7" height="13" viewBox="0 0 7 13" fill="none" xmlns="http://www.w3.org/2000/svg">
<path d="M3.5 0.5C1.5666 0.5 0 2.1728 0 4.24484C0 7.82758 3.5 12.5 3.5 12.5C3.5 12.5 7 7.82683 7 4.24484C7 2.17355 5.4334 0.5 3.5 0.5ZM3.5 6.31689C2.99874 6.31689 2.51801 6.1034 2.16357 5.72341C1.80912 5.34341 1.61 4.82802 1.61 4.29062C1.61 3.75322 1.80912 3.23783 2.16357 2.85783C2.51801 2.47783 2.99874 2.26435 3.5 2.26435C4.00126 2.26435 4.48199 2.47783 4.83643 2.85783C5.19088 3.23783 5.39 3.75322 5.39 4.29062C5.39 4.82802 5.19088 5.34341 4.83643 5.72341C4.48199 6.1034 4.00126 6.31689 3.5 6.31689Z" fill="#E3AB38"/>
</svg>
