<svg width="14" height="11" viewBox="0 0 14 11" fill="none" xmlns="http://www.w3.org/2000/svg">
<path d="M12.7749 0.5H1.63206C1.38579 0.5 1.1496 0.605357 0.975463 0.792893C0.801323 0.98043 0.703491 1.23478 0.703491 1.5V9.5C0.703491 9.76522 0.801323 10.0196 0.975463 10.2071C1.1496 10.3946 1.38579 10.5 1.63206 10.5H12.7749C13.0212 10.5 13.2574 10.3946 13.4315 10.2071C13.6057 10.0196 13.7035 9.76522 13.7035 9.5V1.5C13.7035 1.23478 13.6057 0.98043 13.4315 0.792893C13.2574 0.605357 13.0212 0.5 12.7749 0.5ZM11.7535 1.5L7.20349 4.89L2.65349 1.5H11.7535ZM1.63206 9.5V1.955L6.93885 5.91C7.01657 5.96806 7.1089 5.99918 7.20349 5.99918C7.29808 5.99918 7.39041 5.96806 7.46813 5.91L12.7749 1.955V9.5H1.63206Z" fill="#E3AB38"/>
</svg>
