<svg width="16" height="13" viewBox="0 0 16 13" fill="none" xmlns="http://www.w3.org/2000/svg">
<path d="M1 12.5C1 12.5 0 12.5 0 11.5C0 10.5 1 7.5 6 7.5C11 7.5 12 10.5 12 11.5C12 12.5 11 12.5 11 12.5H1ZM6 6.5C6.79565 6.5 7.55871 6.18393 8.12132 5.62132C8.68393 5.05871 9 4.29565 9 3.5C9 2.70435 8.68393 1.94129 8.12132 1.37868C7.55871 0.816071 6.79565 0.5 6 0.5C5.20435 0.5 4.44129 0.816071 3.87868 1.37868C3.31607 1.94129 3 2.70435 3 3.5C3 4.29565 3.31607 5.05871 3.87868 5.62132C4.44129 6.18393 5.20435 6.5 6 6.5Z" fill="#E3AB38"/>
<path fill-rule="evenodd" clip-rule="evenodd" d="M13.5 3.5C13.6326 3.5 13.7598 3.55268 13.8536 3.64645C13.9473 3.74021 14 3.86739 14 4V5.5H15.5C15.6326 5.5 15.7598 5.55268 15.8536 5.64645C15.9473 5.74021 16 5.86739 16 6C16 6.13261 15.9473 6.25979 15.8536 6.35355C15.7598 6.44732 15.6326 6.5 15.5 6.5H14V8C14 8.13261 13.9473 8.25979 13.8536 8.35355C13.7598 8.44732 13.6326 8.5 13.5 8.5C13.3674 8.5 13.2402 8.44732 13.1464 8.35355C13.0527 8.25979 13 8.13261 13 8V6.5H11.5C11.3674 6.5 11.2402 6.44732 11.1464 6.35355C11.0527 6.25979 11 6.13261 11 6C11 5.86739 11.0527 5.74021 11.1464 5.64645C11.2402 5.55268 11.3674 5.5 11.5 5.5H13V4C13 3.86739 13.0527 3.74021 13.1464 3.64645C13.2402 3.55268 13.3674 3.5 13.5 3.5Z" fill="#E3AB38"/>
</svg>
