<svg width="12" height="12" viewBox="0 0 12 12" fill="none" xmlns="http://www.w3.org/2000/svg">
<path d="M4.7186 6.49173C5.41442 7.19761 6.25636 7.74259 7.18526 8.0884L8.44193 7.0884C8.47919 7.06274 8.52336 7.049 8.5686 7.049C8.61383 7.049 8.658 7.06274 8.69526 7.0884L11.0286 8.59173C11.1172 8.64499 11.1922 8.71811 11.2476 8.80533C11.3031 8.89254 11.3375 8.99146 11.3482 9.09427C11.3589 9.19708 11.3455 9.30096 11.3091 9.39771C11.2727 9.49445 11.2144 9.58142 11.1386 9.65173L10.0453 10.7317C9.88869 10.8864 9.69624 11 9.48511 11.0622C9.27398 11.1244 9.05072 11.1334 8.83526 11.0884C6.686 10.6445 4.70497 9.6049 3.1186 8.0884C1.56742 6.55681 0.49402 4.60801 0.0285952 2.4784C-0.0173827 2.26628 -0.00778649 2.04588 0.0564539 1.83855C0.120694 1.63123 0.2374 1.44402 0.395262 1.29506L1.5286 0.201729C1.59873 0.129659 1.68426 0.0743878 1.77878 0.0400554C1.8733 0.00572304 1.97436 -0.00678115 2.0744 0.00347914C2.17444 0.0137394 2.27086 0.0464983 2.35644 0.0993029C2.44202 0.152107 2.51455 0.223589 2.5686 0.308396L4.12193 2.61173C4.14872 2.6479 4.16318 2.69172 4.16318 2.73673C4.16318 2.78174 4.14872 2.82556 4.12193 2.86173L3.0986 4.09173C3.45379 5.00204 4.00717 5.82187 4.7186 6.49173V6.49173Z" fill="#E3AB38"/>
</svg>
