<svg width="41" height="41" viewBox="0 0 41 41" fill="none" xmlns="http://www.w3.org/2000/svg">
<circle cx="20.5" cy="20.5" r="20.5" fill="#F0F5F7"/>
<path d="M26.5764 16.4859C26.6851 16.5917 26.7713 16.7173 26.8301 16.8556C26.8889 16.9939 26.9192 17.1422 26.9192 17.2919C26.9192 17.4416 26.8889 17.5899 26.8301 17.7282C26.7713 17.8665 26.6851 17.9921 26.5764 18.0979L19.5756 24.9282C19.4672 25.0342 19.3384 25.1183 19.1967 25.1757C19.0549 25.2331 18.903 25.2626 18.7495 25.2626C18.596 25.2626 18.4441 25.2331 18.3023 25.1757C18.1605 25.1183 18.0318 25.0342 17.9234 24.9282L14.423 21.513C14.3145 21.4072 14.2285 21.2815 14.1697 21.1432C14.111 21.0049 14.0808 20.8567 14.0808 20.707C14.0808 20.5574 14.111 20.4091 14.1697 20.2709C14.2285 20.1326 14.3145 20.0069 14.423 19.9011C14.6421 19.6873 14.9392 19.5672 15.2491 19.5672C15.4025 19.5672 15.5544 19.5967 15.6962 19.654C15.8379 19.7113 15.9667 19.7952 16.0752 19.9011L18.7495 22.5125L24.9242 16.4859C25.0326 16.3799 25.1614 16.2958 25.3031 16.2384C25.4449 16.181 25.5968 16.1515 25.7503 16.1515C25.9038 16.1515 26.0557 16.181 26.1975 16.2384C26.3393 16.2958 26.468 16.3799 26.5764 16.4859Z" fill="#373D43"/>
</svg>
