<svg width="50" height="50" viewBox="0 0 50 50" fill="none" xmlns="http://www.w3.org/2000/svg">
<path d="M26.968 32.6004C27.4088 32.6004 27.7659 32.2431 27.7659 31.8025C27.7659 31.3619 27.4088 31.0046 26.968 31.0046H1.71415C1.65106 31.0046 1.59574 30.9492 1.59574 30.8861V1.71425C1.59574 1.65117 1.65117 1.59574 1.71415 1.59574H40.2006C40.2636 1.59574 40.319 1.65117 40.319 1.71425V15.7569C40.319 16.1975 40.6761 16.5548 41.1168 16.5548C41.5576 16.5548 41.9147 16.1975 41.9147 15.7569V1.71425C41.9148 0.769041 41.1458 0 40.2007 0H1.71415C0.769041 0 0 0.769041 0 1.71425V30.8861C0 31.8313 0.769041 32.6004 1.71415 32.6004H16.0963V37.419H9.96126C9.52051 37.419 9.16339 37.7762 9.16339 38.2168C9.16339 38.6575 9.52051 39.0147 9.96126 39.0147H26.968C27.4088 39.0147 27.7659 38.6575 27.7659 38.2168C27.7659 37.7762 27.4088 37.419 26.968 37.419H25.8184V32.6004H26.968ZM24.2226 37.419H17.6921V32.6004H24.2226V37.419Z" fill="#373D43"/>
<path d="M26.9681 25.5973H3.98943C3.54869 25.5973 3.19156 25.9545 3.19156 26.3952C3.19156 26.8358 3.54869 27.193 3.98943 27.193H26.9681C27.4088 27.193 27.766 26.8358 27.766 26.3952C27.766 25.9545 27.4088 25.5973 26.9681 25.5973Z" fill="#373D43"/>
<path d="M48.2857 18.1501H31.0757C30.1305 18.1501 29.3616 18.9192 29.3616 19.8644V48.2855C29.3616 49.2307 30.1306 49.9997 31.0757 49.9997H48.2856C49.2308 49.9997 49.9997 49.2307 49.9997 48.2855V19.8644C49.9998 18.9191 49.2308 18.1501 48.2857 18.1501ZM30.9573 22.9374H48.4041V42.0209H30.9573V22.9374ZM31.0757 19.7459H48.2856C48.3486 19.7459 48.404 19.8013 48.404 19.8644V21.3416H30.9573V19.8644C30.9573 19.8012 31.0127 19.7459 31.0757 19.7459ZM48.2857 48.4039H31.0757C31.0126 48.4039 30.9573 48.3485 30.9573 48.2854V43.6167H48.4041V48.2854C48.4041 48.3485 48.3486 48.4039 48.2857 48.4039Z" fill="#373D43"/>
<path d="M41.2765 45.2124H38.085C37.6443 45.2124 37.2872 45.5696 37.2872 46.0103C37.2872 46.4509 37.6443 46.8081 38.085 46.8081H41.2765C41.7173 46.8081 42.0744 46.4509 42.0744 46.0103C42.0744 45.5696 41.7173 45.2124 41.2765 45.2124Z" fill="#373D43"/>
</svg>
