<svg width="72" height="50" viewBox="0 0 72 50" fill="none" xmlns="http://www.w3.org/2000/svg">
<path d="M16.6667 38.0953C14.6943 38.0953 13.0952 39.6944 13.0952 41.6668C13.0952 43.6391 14.6942 45.2382 16.6667 45.2382C18.6392 45.2382 20.2381 43.6393 20.2381 41.6668C20.2359 39.6952 18.6382 38.0974 16.6667 38.0953ZM16.6667 42.8572C16.0092 42.8572 15.4762 42.3243 15.4762 41.6668C15.4762 41.0093 16.0092 40.4763 16.6667 40.4763C17.3242 40.4763 17.8571 41.0093 17.8571 41.6668C17.8564 42.324 17.3239 42.8565 16.6667 42.8572Z" fill="#373D43"/>
<path d="M54.7617 38.0953C52.7893 38.0953 51.1903 39.6944 51.1903 41.6668C51.1903 43.6391 52.7893 45.2382 54.7617 45.2382C56.7341 45.2382 58.3331 43.6393 58.3331 41.6668C58.331 39.6952 56.7332 38.0974 54.7617 38.0953ZM54.7617 42.8572C54.1042 42.8572 53.5713 42.3243 53.5713 41.6668C53.5713 41.0093 54.1043 40.4763 54.7617 40.4763C55.4192 40.4763 55.9521 41.0093 55.9521 41.6668C55.9516 42.324 55.4189 42.8565 54.7617 42.8572Z" fill="#373D43"/>
<path d="M70.521 21.1495L62.3203 11.914C61.6409 11.149 60.666 10.7122 59.6428 10.7143H48.8094V3.57142C48.8073 1.59988 47.2096 0.00209263 45.238 0H3.57142C1.59988 0.00209263 0.00209274 1.59988 1.16262e-07 3.57142V34.5238C-0.000139392 34.8395 0.125279 35.1423 0.348632 35.3657C0.571846 35.5889 0.874719 35.7143 1.19057 35.7143H2.38099V39.2857C2.38309 41.2573 3.98088 42.8551 5.95241 42.8572H8.42841C9.01518 46.9559 12.5261 50 16.6667 50C20.8073 50 24.3182 46.9559 24.9049 42.8572H46.5237C47.1105 46.9559 50.6214 50 54.762 50C58.9026 50 62.4135 46.9559 63.0002 42.8572H67.857C69.8285 42.8551 71.4263 41.2573 71.4284 39.2857V23.5235C71.4275 22.6475 71.1046 21.8027 70.521 21.1495ZM2.38099 33.3332V3.57142C2.38169 2.91419 2.91419 2.38155 3.57142 2.38099H45.238C45.8952 2.38169 46.4279 2.91419 46.4284 3.57142V33.3332H2.38099ZM8.42841 40.476H5.95241C5.29519 40.4753 4.76254 39.9428 4.76198 39.2856V35.7142H10.846C9.5382 36.9924 8.68845 38.666 8.42841 40.476ZM16.6667 47.6189C13.3793 47.6189 10.7143 44.9538 10.7143 41.6665C10.7143 38.3791 13.3793 35.7142 16.6667 35.7142C19.954 35.7142 22.6191 38.3792 22.6191 41.6666C22.6152 44.9523 19.9524 47.6151 16.6667 47.6189ZM28.5714 40.476H24.9048C24.6447 38.666 23.7951 36.9922 22.4874 35.7142H28.5714V40.476ZM39.2856 40.476H30.9523V35.7142H39.2856V40.476ZM46.5236 40.476H41.6666V35.7142H48.941C47.6332 36.9924 46.7836 38.666 46.5236 40.476ZM54.7617 47.6189C51.4743 47.6189 48.8093 44.9538 48.8093 41.6665C48.8093 38.3791 51.4742 35.7141 54.7617 35.7141C58.0491 35.7141 60.7141 38.3791 60.7141 41.6665C60.7102 44.9523 58.0476 47.6151 54.7617 47.6189ZM69.0474 39.2856C69.0467 39.9428 68.5142 40.4755 67.857 40.476H63C62.4064 36.381 58.8997 33.3406 54.7617 33.3332H48.8093V13.0952H53.5713V24.9999C53.5734 26.9715 55.1712 28.5693 57.1427 28.5714H69.0474V39.2856ZM69.0474 26.1904H57.1427C56.4855 26.1897 55.9528 25.6572 55.9523 24.9999V13.0952H59.6428C59.9846 13.0933 60.3108 13.2381 60.5386 13.4928L68.7423 22.7318C68.9376 22.9494 69.0461 23.2311 69.0475 23.5235V26.1904H69.0474Z" fill="#373D43"/>
</svg>
