<svg width="26" height="26" viewBox="0 0 26 26" fill="none" xmlns="http://www.w3.org/2000/svg">
<circle cx="13" cy="13" r="13" fill="#B46F49"/>
<path d="M12.7698 13.9881C13.8692 13.9881 14.7604 13.0969 14.7604 11.9975C14.7604 10.8981 13.8692 10.0068 12.7698 10.0068C11.6704 10.0068 10.7792 10.8981 10.7792 11.9975C10.7792 13.0969 11.6704 13.9881 12.7698 13.9881Z" stroke="white" stroke-linecap="round" stroke-linejoin="round"/>
<path d="M12.7698 6.68945C11.362 6.68945 10.0118 7.24872 9.01626 8.24423C8.02076 9.23973 7.46149 10.5899 7.46149 11.9978C7.46149 13.2532 7.72823 14.0747 8.4568 14.9837L12.7698 19.9603L17.0828 14.9837C17.8114 14.0747 18.0782 13.2532 18.0782 11.9978C18.0782 10.5899 17.5189 9.23973 16.5234 8.24423C15.5279 7.24872 14.1777 6.68945 12.7698 6.68945V6.68945Z" stroke="white" stroke-linecap="round" stroke-linejoin="round"/>
</svg>
