<svg width="60" height="50" viewBox="0 0 60 50" fill="none" xmlns="http://www.w3.org/2000/svg">
<path d="M6.00002 40H4.00002V46H6.00002V40Z" fill="#373D43"/>
<path d="M10 40H8.00003V42H10V40Z" fill="#373D43"/>
<path d="M10 43.9999H8.00003V45.9999H10V43.9999Z" fill="#373D43"/>
<path d="M22.5575 15.7569C24.5616 16.5585 27.2048 17 30 17C32.7953 17 35.4384 16.5585 37.4425 15.7569C39.7366 14.8392 41 13.5051 41 12C41 10.4949 39.7366 9.16075 37.4425 8.24312C35.4384 7.4415 32.7953 7 30 7C27.2048 7 24.5616 7.4415 22.5575 8.24312C20.2634 9.16075 19 10.4949 19 12C19 13.5051 20.2634 14.8392 22.5575 15.7569ZM30 9C35.494 9 39 10.7767 39 12C39 13.2232 35.494 15 30 15C24.506 15 21 13.2232 21 12C21 10.7767 24.506 9 30 9Z" fill="#373D43"/>
<path d="M52 22H51V12C51 8.6805 48.7356 5.607 44.624 3.34562C40.7014 1.18812 35.5078 0 30 0C24.4923 0 19.2986 1.1875 15.376 3.34562C11.2644 5.607 9 8.6805 9 12V26C9 29.3195 11.2644 32.393 15.376 34.6544C16.3217 35.1707 17.3023 35.6204 18.3106 36H1C0.734784 36 0.48043 36.1054 0.292893 36.2929C0.105357 36.4804 0 36.7348 0 37V49C0 49.2652 0.105357 49.5196 0.292893 49.7071C0.48043 49.8946 0.734784 50 1 50H52C54.121 49.9976 56.1544 49.154 57.6542 47.6542C59.154 46.1544 59.9976 44.121 60 42V30C59.9976 27.879 59.154 25.8456 57.6542 24.3458C56.1544 22.846 54.121 22.0024 52 22ZM12 48H2V38H12V48ZM49 22H41.6894C42.6977 21.6204 43.6783 21.1708 44.624 20.6544C46.4666 19.641 47.9365 18.464 49 17.1754V22ZM16.3399 5.098C19.9721 3.1 24.8235 2 30 2C35.1765 2 40.0279 3.1 43.6601 5.098C47.1036 6.992 49 9.443 49 12C49 14.557 47.1036 17.008 43.6601 18.902C40.0279 20.9 35.1765 22 30 22C24.8235 22 19.9721 20.9 16.3399 18.902C12.8964 17.008 11 14.557 11 12C11 9.443 12.8964 6.992 16.3399 5.098ZM16.3399 32.902C12.8964 31.008 11 28.5569 11 26V17.175C12.0625 18.4636 13.5334 19.6406 15.376 20.654C15.8955 20.9397 16.4368 21.2082 17 21.4592V26H19V22.2514C19.9839 22.5921 20.9853 22.8801 22 23.1139V26H24V23.5125C24.9779 23.6759 25.9801 23.7989 27 23.8806V30H29V23.9867C29.332 23.9951 29.6653 23.9995 30 24H32V26H34V24H37V26H39V24H42V30H44V24H47V26H49V24H52V26H54V24.344C55.3338 24.8162 56.4578 25.7446 57.1735 26.9652C57.8892 28.1859 58.1505 29.6201 57.9112 31.0147C57.6719 32.4092 56.9474 33.6744 55.8658 34.5866C54.7842 35.4988 53.4149 35.9994 52 36H30C24.8235 36 19.9721 34.9 16.3399 32.902ZM58 42C57.9982 43.5907 57.3655 45.1158 56.2406 46.2406C55.1158 47.3655 53.5907 47.9982 52 48H14V38H17V40H19V38H22V40H24V38H27V44H29V38H32V40H34V38H37V40H39V38H42V44H44V38H47V40H49V38H52V40H54V37.7469C55.5497 37.3439 56.9429 36.4857 58 35.283V42Z" fill="#373D43"/>
</svg>
