<svg width="51" height="51" viewBox="0 0 51 51" fill="none" xmlns="http://www.w3.org/2000/svg">
<path d="M40.0132 20.0083C45.5188 20.0268 49.9974 15.5784 50.0159 10.0727C50.0187 9.2346 49.9158 8.39992 49.7097 7.58753C49.5986 7.1407 49.1463 6.86876 48.6994 6.97987C48.5527 7.01656 48.4189 7.09235 48.3119 7.199L43.1228 12.3847L39.0056 11.0127L37.6326 6.89654L42.8217 1.70637C43.1472 1.3806 43.1468 0.852834 42.821 0.527399C42.7137 0.420063 42.5786 0.343934 42.4308 0.307584C37.0914 -1.04457 31.6674 2.1875 30.3152 7.52649C30.1098 8.33648 30.0073 9.1691 30.01 10.0048C30.0121 10.6612 30.0797 11.3155 30.2127 11.9581L11.9564 30.214C11.3138 30.0813 10.6595 30.0138 10.0035 30.0114C4.4786 30.0114 0 34.49 0 40.0148C0 45.5393 4.4786 50.0179 10.0035 50.0179C15.528 50.0179 20.0066 45.5393 20.0066 40.0148C20.0045 39.3585 19.9366 38.7042 19.8039 38.0615L24.1745 33.691L26.086 35.6024C26.4117 35.9279 26.9391 35.9279 27.2649 35.6024L27.6816 35.1854C28.0471 34.8223 28.638 34.8223 29.0036 35.1854C29.3688 35.5496 29.3695 36.1408 29.0053 36.506C29.0049 36.5064 29.0042 36.5071 29.0036 36.5077L28.5869 36.9244C28.2615 37.2498 28.2615 37.7776 28.5869 38.103L38.531 48.0471C41.1465 50.6866 45.4063 50.7058 48.0458 48.0904C50.685 45.4749 50.7042 41.2147 48.0887 38.5756C48.0746 38.5612 48.0602 38.5468 48.0458 38.5324L38.1017 28.5886C37.7763 28.2631 37.2485 28.2631 36.9231 28.5886L36.5064 29.0052C36.1405 29.3687 35.55 29.3687 35.1841 29.0052C34.8192 28.641 34.8182 28.0498 35.1824 27.685C35.1831 27.6843 35.1838 27.6839 35.1841 27.6833L35.6011 27.2663C35.9265 26.9408 35.9265 26.4131 35.6011 26.0876L33.6896 24.1762L38.0602 19.8056C38.7028 19.9383 39.3571 20.0062 40.0132 20.0083ZM43.2884 48.351C42.6828 48.35 42.0824 48.2406 41.5155 48.0276L48.0259 41.5168C49.0084 44.1303 47.6864 47.0451 45.073 48.0276C44.5027 48.2419 43.8982 48.3517 43.2884 48.351ZM33.8446 26.6853C32.9215 27.7865 33.0662 29.4277 34.1673 30.3505C35.1351 31.1615 36.5455 31.1609 37.5122 30.3481L46.8672 39.7113C46.9687 39.8132 47.0637 39.9205 47.1556 40.0296L40.0282 47.1569C39.9189 47.0654 39.8115 46.9704 39.7097 46.8685L30.3475 37.5056C31.2706 36.4045 31.1259 34.7633 30.0248 33.8405C29.0571 33.0291 27.6463 33.0301 26.6796 33.8425L25.3459 32.5089L32.5107 25.3548L33.8446 26.6853ZM37.2108 18.3012L18.3002 37.208C18.0927 37.4151 18.0094 37.7159 18.08 38.0001C19.2237 42.4914 16.5098 47.0595 12.0181 48.2028C7.52686 49.3465 2.95876 46.6326 1.8151 42.141C0.67179 37.6497 3.3857 33.0816 7.87733 31.9379C9.236 31.5923 10.6595 31.5923 12.0181 31.9379C12.3024 32.0075 12.6025 31.9242 12.8103 31.7181L31.7164 12.811C31.9236 12.6038 32.0069 12.3031 31.9356 12.0191C30.7998 7.58033 33.4774 3.06127 37.9162 1.92516C38.755 1.71083 39.6226 1.62853 40.4867 1.68237L36.0894 6.08141C35.8662 6.30431 35.788 6.63454 35.8878 6.93392L37.5547 11.9358C37.6381 12.1844 37.8335 12.3799 38.0825 12.4625L43.0844 14.1298C43.3834 14.2296 43.7137 14.1518 43.9369 13.9289L48.3342 9.53157C48.3442 9.69069 48.3493 9.84809 48.3493 10.0048C48.3726 14.5853 44.6787 18.3173 40.0982 18.341C39.3901 18.3444 38.6843 18.2573 37.9985 18.0817C37.7142 18.0107 37.4134 18.0937 37.2063 18.3008H37.2108V18.3012Z" fill="#373D43"/>
<path d="M0.110157 4.58663L3.44476 10.4218C3.55724 10.619 3.7455 10.7617 3.96566 10.8169L7.07667 11.5946L17.7468 22.2647L18.9258 21.0861L8.08865 10.2493C7.982 10.1424 7.84826 10.0666 7.70183 10.0299L4.71255 9.27989L1.87348 4.30886L4.30756 1.87478L9.28065 4.7166L10.031 7.70587C10.0673 7.85264 10.1435 7.98673 10.2501 8.09338L21.0872 18.9305L22.2658 17.7515L11.5957 7.0814L10.818 3.97211C10.7628 3.75161 10.6201 3.563 10.4229 3.45017L4.58738 0.115917C4.26195 -0.0692627 3.8525 -0.0143947 3.58707 0.25L0.252814 3.5846C-0.0153537 3.84831 -0.0736509 4.25845 0.110157 4.58663Z" fill="#373D43"/>
<path d="M34.7679 16.4292L16.4286 34.7689L15.2496 33.5899L33.5893 15.2506L34.7679 16.4292Z" fill="#373D43"/>
<path d="M13.2188 35.4177C13.068 35.1667 12.797 35.0134 12.5042 35.0134H7.50263C7.21012 35.0134 6.93886 35.1667 6.78832 35.4177L4.28737 39.5856C4.1286 39.8497 4.1286 40.1799 4.28737 40.4443L6.78832 44.6122C6.93886 44.8629 7.21012 45.0166 7.50263 45.0166H12.5042C12.797 45.0166 13.068 44.8629 13.2188 44.6122L15.7194 40.4443C15.8782 40.1799 15.8782 39.8497 15.7194 39.5856L13.2188 35.4177ZM12.0327 43.3493H7.9745L5.97387 40.015L7.9745 36.6804H12.0327L14.0333 40.015L12.0327 43.3493Z" fill="#373D43"/>
<path d="M43.1043 41.9259L41.9253 43.1049L33.5895 34.7691L34.7681 33.5901L43.1043 41.9259Z" fill="#373D43"/>
</svg>
