<svg width="16" height="16" viewBox="0 0 16 16" fill="none" xmlns="http://www.w3.org/2000/svg">
<g clip-path="url(#clip0)">
<path d="M7.99565 0.00439838C3.57998 0.00533532 0.00113198 3.58572 0.00206893 8.00138C0.00238124 9.53039 0.441153 11.0272 1.26629 12.3145L0.0223694 15.5419C-0.0438726 15.7135 0.0415768 15.9064 0.213225 15.9726C0.251609 15.9874 0.292366 15.995 0.333498 15.995C0.371663 15.9952 0.409547 15.9886 0.445432 15.9756L3.7768 14.7863C7.52496 17.1207 12.4559 15.9746 14.7902 12.2264C17.1246 8.47826 15.9785 3.5474 12.2303 1.21303C10.9598 0.421683 9.49255 0.0029305 7.99565 0.00439838Z" fill="#4CAF50"/>
<path d="M11.8075 9.36609C11.8075 9.36609 10.9914 8.96633 10.4803 8.69983C9.902 8.40201 9.22241 8.95968 8.9026 9.27683C8.40486 9.08563 7.95025 8.79705 7.56539 8.42799C7.19626 8.04319 6.90768 7.58858 6.71655 7.09078C7.0337 6.77031 7.59003 6.09137 7.29355 5.51306C7.03036 5.00136 6.62729 4.18584 6.62729 4.18519C6.57072 4.07294 6.45582 4.00208 6.33012 4.00195H5.66386C4.69355 4.16954 3.98807 5.01617 3.99818 6.00077C3.99818 7.04681 5.2501 9.05631 6.09429 9.90112C6.93848 10.7459 8.94794 11.9972 9.99464 11.9972C10.9792 12.0073 11.8259 11.3018 11.9935 10.3316V9.66529C11.9935 9.53824 11.9215 9.42221 11.8075 9.36609Z" fill="#FAFAFA"/>
</g>
<defs>
<clipPath id="clip0">
<rect width="16" height="16" fill="white"/>
</clipPath>
</defs>
</svg>
